# xmcd
#
# Track frame offsets:
#	150
#	21158
#	39775
#	58095
#	76150
#	90550
#	116962
#
# Disc length: 1801 seconds
#
# Revision: 0
# Processed by: cddbd v1.5.2PL0 Copyright (c) Steve Scherf et al.
# Submitted via: audiograbber 1.83.01
#
DISCID=4d070707
DTITLE=Dixie Chicks - Sunfly 6 Of The Best - SF6B107
DYEAR=2011
DGENRE=Country
TTITLE0=Goodbey Earl - In the style of Dixie Chicks
TTITLE1=Not Ready To Make Nice - In the style of Dixie Chicks
TTITLE2=Ready To Run - In the style of Dixie Chicks
TTITLE3=Sin Wagon - In the style of Dixie Chicks
TTITLE4=There's Your Trouble - In the style of Dixie Chicks
TTITLE5=Travelling Soldier - In the style of Dixie Chicks
TTITLE6=Wide Open Spaces - In the style of Dixie Chicks
EXTD=
EXTT0=
EXTT1=
EXTT2=
EXTT3=
EXTT4=
EXTT5=
EXTT6=
PLAYORDER=
